<svg width="100" height="76" viewBox="0 0 100 76" fill="none" xmlns="http://www.w3.org/2000/svg">
<path d="M1.47595 46L71.476 2C71.476 2 78.5458 7.25989 82.476 11C85.3049 13.6922 88.2715 15.7765 90.476 19C92.5556 22.0411 92.6779 22.7844 94.476 26C96.1807 29.0487 96.526 30.6387 97.476 34C98.8566 38.8855 98.476 46 98.476 46M1.47595 46H98.476M1.47595 46V74H98.476V46" stroke="#193A52" stroke-width="2.5"/>
<circle cx="17.476" cy="66" r="2.75" stroke="#193A52" stroke-width="2.5"/>
<circle cx="87.476" cy="62" r="2.75" stroke="#193A52" stroke-width="2.5"/>
<circle cx="45.476" cy="64" r="4.75" stroke="#193A52" stroke-width="2.5"/>
<circle cx="61.476" cy="54" r="2.75" stroke="#193A52" stroke-width="2.5"/>
<circle cx="81.476" cy="68" r="1.25" stroke="#193A52" stroke-width="1.5"/>
<circle cx="9.47595" cy="54" r="2.75" stroke="#193A52" stroke-width="2.5"/>
</svg>
