<svg width="154" height="153" viewBox="0 0 154 153" fill="none" xmlns="http://www.w3.org/2000/svg">
<path d="M89.5225 96.4747L109.72 118.069L90.869 138.853L85.483 141.013L62.0539 118.069M89.5225 96.4747C89.5225 96.4747 87.5529 96.4747 86.2909 96.4747C83.9772 96.4747 82.5929 95.8445 80.3663 96.4747C76.642 97.5286 75.6825 100.338 73.0952 103.223C69.662 107.05 66.922 112.439 65.5548 114.02C64.1876 115.601 63.4211 116.488 62.0539 118.069M89.5225 96.4747L81.4435 87.2971M62.0539 118.069L53.167 109.701M53.167 109.701L44.5494 100.524M53.167 109.701C53.167 109.701 55.1432 108.218 56.1293 107.002C57.1988 105.683 57.3837 104.663 58.2837 103.223C60.3936 99.8455 61.9124 98.1694 64.4776 95.125C66.7827 92.3892 67.4307 89.884 70.6715 88.3768C72.8046 87.3847 74.252 87.4859 76.5961 87.2971C78.483 87.1451 81.4435 87.2971 81.4435 87.2971M44.5494 100.524L36.7397 92.4257M44.5494 100.524C44.5494 100.524 46.0539 98.7358 46.9731 97.5544C49.6279 94.1422 50.413 91.7091 53.167 88.3768C55.8236 85.1623 60.7074 80.8189 60.7074 80.8189L63.4004 78.3895H70.6715H74.711M36.7397 92.4257L30.0072 85.1377M36.7397 92.4257C36.7397 92.4257 38.1564 90.8559 38.8941 89.7265C39.9763 88.0694 40.1012 86.8758 41.0485 85.1377C42.2512 82.931 43.0277 81.7383 44.5494 79.7391C46.8503 76.7162 48.3655 75.1525 51.2819 72.721C53.0771 71.2243 53.8787 69.8359 56.1293 69.212C57.8524 68.7342 60.7074 69.212 60.7074 69.212H64.4776M30.0072 85.1377L22.7361 76.7699L21.6589 75.6183M30.0072 85.1377C30.0072 85.1377 32.5101 81.8775 34.0467 79.7391C36.9277 75.7299 37.67 72.8099 41.0485 69.212C43.1437 66.9806 44.0643 65.0264 46.9731 64.0833C49.2745 63.3372 50.7481 64.0833 53.167 64.0833C54.3238 64.0833 56.1293 64.0833 56.1293 64.0833C57.8156 64.2775 60.3034 65.298 60.3034 65.298M51.2819 55.1757C51.2819 55.1757 46.9124 50.1942 43.2029 48.4275C40.8281 47.2965 39.3528 46.8288 36.7397 46.538C36.7397 46.538 34.0673 46.1452 32.4309 46.538C29.7915 47.1717 28.7945 48.7688 26.7756 50.5869C23.4272 53.6024 22.3049 56.0334 19.7738 59.7645C17.6237 62.9339 14.6571 68.1322 14.6571 68.1322L21.6589 75.6183M51.2819 55.1757L56.1293 61.3841L60.3034 65.298M51.2819 55.1757C51.2819 55.1757 48.0499 54.0736 45.8959 53.8261C44.0152 53.61 41.0485 53.8261 41.0485 53.8261C41.0485 53.8261 38.3745 55.9077 36.7397 57.3351C35.0005 58.8537 33.965 59.6577 32.4309 61.3841C29.6947 64.463 29.7286 67.4211 26.7756 70.2917C25.7026 71.3347 24.8421 71.6342 23.8133 72.721C22.8443 73.7447 21.6589 75.6183 21.6589 75.6183M64.4776 69.212L74.711 78.3895M64.4776 69.212L60.3034 65.298M74.711 78.3895L81.4435 87.2971M119.684 66.2428L139.882 87.837L121.031 108.621L115.645 110.781L92.2154 87.837M119.684 66.2428H116.452C114.139 66.2428 112.754 65.6126 110.528 66.2428C106.804 67.2967 105.844 70.1065 103.257 72.991C99.8236 76.8184 97.0835 82.2069 95.7163 83.7881L92.2154 87.837M119.684 66.2428L111.605 57.0652M92.2154 87.837L83.3286 79.4692M83.3286 79.4692L74.711 70.2917M83.3286 79.4692C83.3286 79.4692 85.3048 77.986 86.2908 76.7699C87.3604 75.4509 87.5452 74.4316 88.4452 72.991C90.5552 69.6136 92.074 67.9375 94.6391 64.8931C96.9443 62.1573 97.5923 59.6521 100.833 58.1449C102.966 57.1528 104.414 57.254 106.758 57.0652C108.645 56.9132 111.605 57.0652 111.605 57.0652M74.711 70.2917L66.9013 62.1938M74.711 70.2917C74.711 70.2917 76.2155 68.5039 77.1347 67.3225C79.7895 63.9103 80.5746 61.4772 83.3286 58.1449C85.9851 54.9304 90.8689 50.587 90.8689 50.587L93.5619 48.1576H100.833H104.873M66.9013 62.1938L60.1688 54.9058M66.9013 62.1938C66.9013 62.1938 68.318 60.624 69.0557 59.4946C70.1379 57.8375 70.2628 56.6439 71.2101 54.9058C72.4127 52.6991 73.1893 51.5064 74.711 49.5072C77.0118 46.4843 78.5271 44.9206 81.4435 42.4891C83.2387 40.9924 84.0402 39.604 86.2908 38.9801C88.014 38.5023 90.8689 38.9801 90.8689 38.9801H94.6391M60.1688 54.9058L52.8977 46.538L51.8205 45.3863M60.1688 54.9058C60.1688 54.9058 62.6716 51.6456 64.2083 49.5072C67.0893 45.498 67.8316 42.5781 71.2101 38.9801C73.3053 36.7487 74.2259 34.7945 77.1347 33.8515C79.4361 33.1053 80.9097 33.8515 83.3286 33.8515H86.2908C87.9772 34.0456 90.465 35.0661 90.465 35.0661M81.4435 24.9438C81.4435 24.9438 77.0739 19.9624 73.3645 18.1957C70.9897 17.0646 69.5144 16.5969 66.9013 16.3062C66.9013 16.3062 64.2289 15.9133 62.5925 16.3062C59.9531 16.9398 58.9561 18.5369 56.9372 20.3551C53.5888 23.3705 52.4665 25.8016 49.9354 29.5326C47.7853 32.7021 44.8187 37.9004 44.8187 37.9004L51.8205 45.3863M81.4435 24.9438L86.2908 31.1522L90.465 35.0661M81.4435 24.9438C81.4435 24.9438 78.2114 23.8417 76.0575 23.5942C74.1767 23.3781 71.2101 23.5942 71.2101 23.5942C71.2101 23.5942 68.536 25.6758 66.9013 27.1033C65.1621 28.6218 64.1266 29.4258 62.5925 31.1522C59.8563 34.2311 59.8902 37.1892 56.9372 40.0598C55.8642 41.1028 55.0037 41.4023 53.9749 42.4891C53.0059 43.5128 51.8205 45.3863 51.8205 45.3863M94.6391 38.9801L104.873 48.1576M94.6391 38.9801L90.465 35.0661M104.873 48.1576L111.605 57.0652M152 88.3768L62.0539 2L2 64.0833L90.869 151C90.869 151 103.583 136.581 114.567 135.614C126.377 134.575 142.036 148.571 142.036 148.571L152 138.853C152 138.853 135.313 124.502 135.842 112.4C136.336 101.097 152 88.3768 152 88.3768Z" stroke="#193A52" stroke-opacity="0.5" stroke-width="1.5"/>
</svg>
